<?xml version="1.0" encoding="utf-8"?>
<!-- Generator: Adobe Illustrator 18.1.1, SVG Export Plug-In . SVG Version: 6.00 Build 0)  -->
<svg version="1.1" id="Layer_1" xmlns="http://www.w3.org/2000/svg" xmlns:xlink="http://www.w3.org/1999/xlink" x="0px" y="0px"
	 viewBox="0 0 362 71" enable-background="new 0 0 362 71" xml:space="preserve">
<g>
	<polygon fill="#AC0000" points="362,64.3 240,64.3 240,27.3 362,27.3 354,45.3 	"/>
	<rect x="65" y="17.3" fill="#E00C0C" width="191" height="37"/>
	<g>
		<path fill="#AC0000" d="M37.2,69.6c-18.7,0-34-15.3-34-34c0-18.7,15.3-34,34-34s34,15.3,34,34C71.2,54.3,56,69.6,37.2,69.6z"/>
		<path fill="#E00C0C" d="M37.2,2.6c18.2,0,33,14.8,33,33s-14.8,33-33,33s-33-14.8-33-33S19,2.6,37.2,2.6 M37.2,0.6
			c-19.3,0-35,15.7-35,35s15.7,35,35,35s35-15.7,35-35S56.5,0.6,37.2,0.6L37.2,0.6z"/>
	</g>
</g>
<g>
	<g>
		<path fill="#FFFFFF" d="M53.2,39.7c0.3-1.2,0.4-2.5,0.4-3.8c0-5.1-2.2-9.6-5.7-12.7v-5.4c0-1-0.8-1.9-1.9-1.9
			c-1,0-1.9,0.8-1.9,1.9v2.8C42,19.6,39.5,19,36.8,19c0,0,0,0,0,0c-2.6,0-5.1,0.6-7.4,1.7v-2.8c0-1-0.8-1.9-1.9-1.9
			c-1,0-1.9,0.8-1.9,1.9v5.4c-3.5,3.1-5.7,7.6-5.7,12.7c0,1.3,0.1,2.6,0.4,3.8H53.2z M44.6,28.9c2.5,0,4.6,1.7,4.6,4.3
			c0,2.6-2.9,4.3-5.4,4.3s-4.6-1.2-4.6-3.8C39.2,31.2,42.1,28.9,44.6,28.9z M29.1,28.9c2.5,0,5.4,2.2,5.4,4.8c0,2.6-2.1,3.8-4.6,3.8
			c-2.5,0-5.4-1.7-5.4-4.3C24.5,30.6,26.5,28.9,29.1,28.9z M49.1,41.6l-2.8,5.1l-2.8-5.1H30l-2.8,5.1l-2.8-5.1h-6.2
			C20.9,49.4,28.2,55,36.8,55c0,0,0,0,0,0c8.6,0,15.9-5.6,18.5-13.4H49.1z"/>
	</g>
</g>
</svg>
