<?xml version="1.0" encoding="UTF-8" standalone="no"?>
<!-- Generator: Adobe Illustrator 18.1.1, SVG Export Plug-In . SVG Version: 6.00 Build 0)  -->

<svg
   xmlns:dc="http://purl.org/dc/elements/1.1/"
   xmlns:cc="http://creativecommons.org/ns#"
   xmlns:rdf="http://www.w3.org/1999/02/22-rdf-syntax-ns#"
   xmlns:svg="http://www.w3.org/2000/svg"
   xmlns="http://www.w3.org/2000/svg"
   xmlns:sodipodi="http://sodipodi.sourceforge.net/DTD/sodipodi-0.dtd"
   xmlns:inkscape="http://www.inkscape.org/namespaces/inkscape"
   version="1.1"
   id="Layer_1"
   x="0px"
   y="0px"
   viewBox="0 0 359.8 70.3"
   enable-background="new 0 0 359.8 70.3"
   xml:space="preserve"
   inkscape:version="0.48.4 r9939"
   width="100%"
   height="100%"
   sodipodi:docname="background-playername-yellow.svg"><metadata
     id="metadata23"><rdf:RDF><cc:Work
         rdf:about=""><dc:format>image/svg+xml</dc:format><dc:type
           rdf:resource="http://purl.org/dc/dcmitype/StillImage" /></cc:Work></rdf:RDF></metadata><defs
     id="defs21" /><sodipodi:namedview
     pagecolor="#ffffff"
     bordercolor="#666666"
     borderopacity="1"
     objecttolerance="10"
     gridtolerance="10"
     guidetolerance="10"
     inkscape:pageopacity="0"
     inkscape:pageshadow="2"
     inkscape:window-width="912"
     inkscape:window-height="674"
     id="namedview19"
     showgrid="false"
     inkscape:zoom="1.0219442"
     inkscape:cx="158.6963"
     inkscape:cy="87.644079"
     inkscape:window-x="643"
     inkscape:window-y="196"
     inkscape:window-maximized="0"
     inkscape:current-layer="g9" /><g
     id="g3"><polygon
       fill="#062B4E"
       points="0,63.9 122,63.9 122,26.9 0,26.9 8,44.9  "
       id="polygon5"
       style="fill:#a38d00;fill-opacity:1" /><rect
       x="106"
       y="16.9"
       fill="#0072FF"
       width="191"
       height="37"
       id="rect7"
       style="fill:#e7cb00;fill-opacity:1" /><g
       id="g9"><path
         fill="#062B4E"
         d="M324.8,69.2c-18.7,0-34-15.3-34-34c0-18.7,15.3-34,34-34s34,15.3,34,34C358.8,53.9,343.5,69.2,324.8,69.2z    "
         id="path11"
         style="fill:#a38d00;fill-opacity:1" /><g
         id="g13"
         style="fill:#fcd665;fill-opacity:1"><path
           fill="#0072FF"
           d="M324.8,2.2c18.2,0,33,14.8,33,33s-14.8,33-33,33s-33-14.8-33-33S306.5,2.2,324.8,2.2 M324.8,0.2     c-19.3,0-35,15.7-35,35s15.7,35,35,35s35-15.7,35-35S344.1,0.2,324.8,0.2L324.8,0.2z"
           id="path15"
           style="fill:#fcd665;fill-opacity:1" /></g></g></g><path
     fill="#FFFFFF"
     d="M344.8,44.6c0-4.3-0.7-8.4-2.1-12.1c-0.6,0.5-1.4,0.9-2.3,0.9c-2.2,0-4-2.2-4-4.8c0-1.7,0.7-3.2,1.8-4  c-3.5-4.3-8-6.9-13-6.9l0,0l0,0c0,0,0,0,0,0l0,0c-5,0-9.6,2.6-13,6.9c1.1,0.9,1.8,2.3,1.8,4c0,2.7-1.8,4.8-4,4.8  c-0.8,0-1.6-0.3-2.3-0.9c-1.3,3.6-2.1,7.7-2.1,12.1h6.1c0,0,0,0,0,0c0-2.2,0.9-3.9,2.1-3.9c1.1,0,2.1,1.8,2.1,3.9c0,0,0,0,0,0h9.2h0  h9.2c0,0,0,0,0,0c0-2.2,0.9-3.9,2.1-3.9c1.1,0,2.1,1.8,2.1,3.9c0,0,0,0,0,0H344.8z M318.9,39c-2.2,0-4-1.8-4-4c0-2.2,1.8-4,4-4  c2.2,0,4,1.8,4,4C322.9,37.2,321.1,39,318.9,39z M331.8,39c-2.2,0-4-1.8-4-4c0-2.2,1.8-4,4-4c2.2,0,4,1.8,4,4  C335.8,37.2,334,39,331.8,39z"
     id="path17" /></svg>