<?xml version="1.0" encoding="UTF-8" standalone="no"?>
<!-- Generator: Adobe Illustrator 18.1.1, SVG Export Plug-In . SVG Version: 6.00 Build 0)  -->

<svg
   xmlns:dc="http://purl.org/dc/elements/1.1/"
   xmlns:cc="http://creativecommons.org/ns#"
   xmlns:rdf="http://www.w3.org/1999/02/22-rdf-syntax-ns#"
   xmlns:svg="http://www.w3.org/2000/svg"
   xmlns="http://www.w3.org/2000/svg"
   xmlns:sodipodi="http://sodipodi.sourceforge.net/DTD/sodipodi-0.dtd"
   xmlns:inkscape="http://www.inkscape.org/namespaces/inkscape"
   version="1.1"
   id="Layer_1"
   x="0px"
   y="0px"
   viewBox="0 0 120 71"
   enable-background="new 0 0 362 71"
   xml:space="preserve"
   inkscape:version="0.48.4 r9939"
   width="100%"
   height="100%"
   sodipodi:docname="background-playername-red.svg"><metadata
     id="metadata25"><rdf:RDF><cc:Work
         rdf:about=""><dc:format>image/svg+xml</dc:format><dc:type
           rdf:resource="http://purl.org/dc/dcmitype/StillImage" /></cc:Work></rdf:RDF></metadata><defs
     id="defs23" /><sodipodi:namedview
     pagecolor="#ffffff"
     bordercolor="#666666"
     borderopacity="1"
     objecttolerance="10"
     gridtolerance="10"
     guidetolerance="10"
     inkscape:pageopacity="0"
     inkscape:pageshadow="2"
     inkscape:window-width="987"
     inkscape:window-height="939"
     id="namedview21"
     showgrid="false"
     inkscape:zoom="3.3149171"
     inkscape:cx="38.779045"
     inkscape:cy="43.862239"
     inkscape:window-x="0"
     inkscape:window-y="0"
     inkscape:window-maximized="0"
     inkscape:current-layer="Layer_1" /><g
     id="g15"><g
       id="g17"><path
         d="m 53.2,39.7 c 0.3,-1.2 0.4,-2.5 0.4,-3.8 0,-5.1 -2.2,-9.6 -5.7,-12.7 v -5.4 c 0,-1 -0.8,-1.9 -1.9,-1.9 -1,0 -1.9,0.8 -1.9,1.9 v 2.8 C 42,19.6 39.5,19 36.8,19 c 0,0 0,0 0,0 -2.6,0 -5.1,0.6 -7.4,1.7 v -2.8 c 0,-1 -0.8,-1.9 -1.9,-1.9 -1,0 -1.9,0.8 -1.9,1.9 v 5.4 c -3.5,3.1 -5.7,7.6 -5.7,12.7 0,1.3 0.1,2.6 0.4,3.8 H 53.2 z M 44.6,28.9 c 2.5,0 4.6,1.7 4.6,4.3 0,2.6 -2.9,4.3 -5.4,4.3 -2.5,0 -4.6,-1.2 -4.6,-3.8 0,-2.5 2.9,-4.8 5.4,-4.8 z m -15.5,0 c 2.5,0 5.4,2.2 5.4,4.8 0,2.6 -2.1,3.8 -4.6,3.8 -2.5,0 -5.4,-1.7 -5.4,-4.3 0,-2.6 2,-4.3 4.6,-4.3 z m 20,12.7 -2.8,5.1 -2.8,-5.1 H 30 l -2.8,5.1 -2.8,-5.1 h -6.2 c 2.7,7.8 10,13.4 18.6,13.4 0,0 0,0 0,0 8.6,0 15.9,-5.6 18.5,-13.4 h -6.2 z"
         id="path19"
         inkscape:connector-curvature="0"
         style="fill:#ffffff" /></g></g><g
     id="g3787"
     transform="matrix(0.92457993,0,0,0.92458001,-13.026641,-10.729)"
     style="fill:#ff6e6b;fill-opacity:1"><rect
       rx="4.5999999"
       transform="matrix(0.70710678,-0.70710678,0.70710678,0.70710678,0,0)"
       y="63.313553"
       x="-33.69767"
       height="17.533695"
       width="70.134781"
       id="rect2993"
       style="fill:#ff6e6b;fill-opacity:1;stroke:none" /><rect
       rx="4.5999999"
       transform="matrix(-0.70710678,-0.70710678,0.70710678,-0.70710678,0,0)"
       y="-7.3971324"
       x="-107.14778"
       height="17.533695"
       width="70.134781"
       id="rect2993-1"
       style="fill:#ff6e6b;fill-opacity:1;stroke:none" /></g><g
     id="g3033"
     transform="translate(6,-2.4674991)"
     style="fill:#ff6e6b;fill-opacity:1"><path
       transform="translate(-9.3516634,-4.8266667)"
       d="m 97.43833,52.598331 c 0,2.499089 -2.025911,4.525001 -4.525,4.525001 -2.499088,0 -4.525,-2.025912 -4.525,-4.525001 0,-2.499088 2.025912,-4.525 4.525,-4.525 2.499089,0 4.525,2.025912 4.525,4.525 z"
       sodipodi:ry="4.5250001"
       sodipodi:rx="4.5250001"
       sodipodi:cy="52.598331"
       sodipodi:cx="92.91333"
       id="path3013"
       style="fill:#ff6e6b;fill-opacity:1;stroke:none"
       sodipodi:type="arc" /><path
       transform="translate(-9.3516634,-24.434998)"
       d="m 97.43833,52.598331 c 0,2.499089 -2.025911,4.525001 -4.525,4.525001 -2.499088,0 -4.525,-2.025912 -4.525,-4.525001 0,-2.499088 2.025912,-4.525 4.525,-4.525 2.499089,0 4.525,2.025912 4.525,4.525 z"
       sodipodi:ry="4.5250001"
       sodipodi:rx="4.5250001"
       sodipodi:cy="52.598331"
       sodipodi:cx="92.91333"
       id="path3013-0"
       style="fill:#ff6e6b;fill-opacity:1;stroke:none"
       sodipodi:type="arc" /></g></svg>