<?xml version="1.0" encoding="UTF-8" standalone="no"?>
<!-- Generator: Adobe Illustrator 18.1.1, SVG Export Plug-In . SVG Version: 6.00 Build 0)  -->

<svg
   xmlns:dc="http://purl.org/dc/elements/1.1/"
   xmlns:cc="http://creativecommons.org/ns#"
   xmlns:rdf="http://www.w3.org/1999/02/22-rdf-syntax-ns#"
   xmlns:svg="http://www.w3.org/2000/svg"
   xmlns="http://www.w3.org/2000/svg"
   xmlns:sodipodi="http://sodipodi.sourceforge.net/DTD/sodipodi-0.dtd"
   xmlns:inkscape="http://www.inkscape.org/namespaces/inkscape"
   version="1.1"
   id="Layer_1"
   x="0px"
   y="0px"
   viewBox="0 0 100 100"
   enable-background="new 0 0 1280 720"
   xml:space="preserve"
   inkscape:version="0.48.4 r9939"
   width="100%"
   height="100%"
   sodipodi:docname="block-0.svg"><metadata
     id="metadata17"><rdf:RDF><cc:Work
         rdf:about=""><dc:format>image/svg+xml</dc:format><dc:type
           rdf:resource="http://purl.org/dc/dcmitype/StillImage" /></cc:Work></rdf:RDF></metadata><defs
     id="defs15" /><sodipodi:namedview
     pagecolor="#ffffff"
     bordercolor="#666666"
     borderopacity="1"
     objecttolerance="10"
     gridtolerance="10"
     guidetolerance="10"
     inkscape:pageopacity="0"
     inkscape:pageshadow="2"
     inkscape:window-width="1920"
     inkscape:window-height="1018"
     id="namedview13"
     showgrid="false"
     inkscape:zoom="2.895"
     inkscape:cx="51.325367"
     inkscape:cy="58.320357"
     inkscape:window-x="0"
     inkscape:window-y="0"
     inkscape:window-maximized="1"
     inkscape:current-layer="g3" /><g
     id="g3"
     transform="translate(0,-620)"><g
       id="g5"
       transform="matrix(0.12517385,0,0,0.125,-30.111265,625)"><path
         d="M 640,691.8 C 457.4,691.8 308.7,543.1 308.7,360.5 308.7,177.9 457.4,28.2 640,28.2 c 182.6,0 331.3,148.7 331.3,331.3 0,182.6 -148.7,332.3 -331.3,332.3 z"
         id="path7"
         inkscape:connector-curvature="0"
         style="fill:#2d2d2d" /><path
         d="m 640,37.6 c 177.9,0 321.9,144.9 321.9,321.9 0,177.9 -144.9,321.9 -321.9,321.9 -177.9,0 -321.9,-144.9 -321.9,-321.9 0,-177 144,-321.9 321.9,-321.9 m 0,-18.8 c -188.2,0 -340.7,153.4 -340.7,341.6 0,188.2 152.5,340.8 340.7,340.8 188.2,0 340.7,-152.5 340.7,-340.7 C 980.7,172.3 828.2,18.8 640,18.8 l 0,0 z"
         id="path9"
         inkscape:connector-curvature="0"
         style="fill:#5b5b5b" /><path
         d="m 640,18.8 c 188.2,0 340.7,152.5 340.7,340.7 C 980.7,547.7 828.2,700.2 640,700.2 451.8,700.2 299.3,547.8 299.3,359.5 299.3,172.2 451.8,18.8 640,18.8 M 640,0 C 441.4,0 280.5,161.9 280.5,360.5 280.5,559.1 442.4,720 640,720 838.6,720 999.5,558.1 999.5,360.5 999.5,161.9 838.6,0 640,0 l 0,0 z"
         id="path11"
         inkscape:connector-curvature="0" /></g></g></svg>