<?xml version="1.0" encoding="UTF-8" standalone="no"?>
<!-- Generator: Adobe Illustrator 18.1.1, SVG Export Plug-In . SVG Version: 6.00 Build 0)  -->

<svg
   xmlns:dc="http://purl.org/dc/elements/1.1/"
   xmlns:cc="http://creativecommons.org/ns#"
   xmlns:rdf="http://www.w3.org/1999/02/22-rdf-syntax-ns#"
   xmlns:svg="http://www.w3.org/2000/svg"
   xmlns="http://www.w3.org/2000/svg"
   xmlns:sodipodi="http://sodipodi.sourceforge.net/DTD/sodipodi-0.dtd"
   xmlns:inkscape="http://www.inkscape.org/namespaces/inkscape"
   version="1.1"
   id="Layer_1"
   x="0px"
   y="0px"
   viewBox="0 0 100 100"
   enable-background="new 0 0 76.6 76.5"
   xml:space="preserve"
   inkscape:version="0.48.4 r9939"
   width="100%"
   height="100%"
   sodipodi:docname="block-1.svg"><metadata
     id="metadata3003"><rdf:RDF><cc:Work
         rdf:about=""><dc:format>image/svg+xml</dc:format><dc:type
           rdf:resource="http://purl.org/dc/dcmitype/StillImage" /></cc:Work></rdf:RDF></metadata><defs
     id="defs3001" /><sodipodi:namedview
     pagecolor="#ffffff"
     bordercolor="#666666"
     borderopacity="1"
     objecttolerance="10"
     gridtolerance="10"
     guidetolerance="10"
     inkscape:pageopacity="0"
     inkscape:pageshadow="2"
     inkscape:window-width="1042"
     inkscape:window-height="852"
     id="namedview2999"
     showgrid="false"
     inkscape:zoom="3.0849673"
     inkscape:cx="52.15583"
     inkscape:cy="39.086073"
     inkscape:window-x="553"
     inkscape:window-y="39"
     inkscape:window-maximized="0"
     inkscape:current-layer="Layer_1" /><g
     id="g2987"
     transform="matrix(1.1780105,0,0,1.1764706,6.8192679,5.0000004)"><g
       id="g2989"><path
         clip-rule="evenodd"
         d="M 38.3,73.5 C 18.9,73.5 3.1,57.7 3.1,38.3 3.1,18.9 18.9,3 38.3,3 57.7,3 73.5,18.8 73.5,38.2 73.5,57.6 57.7,73.5 38.3,73.5 z"
         id="path2991"
         inkscape:connector-curvature="0"
         style="fill:#f72640;fill-rule:evenodd" /><path
         d="M 38.3,4 C 57.2,4 72.5,19.4 72.5,38.2 72.5,57.1 57.1,72.4 38.3,72.4 19.4,72.4 4.1,57 4.1,38.2 4.1,19.4 19.4,4 38.3,4 m 0,-2 C 18.3,2 2.1,18.3 2.1,38.3 c 0,20 16.2,36.2 36.2,36.2 20,0 36.2,-16.2 36.2,-36.2 C 74.5,18.3 58.3,2 38.3,2 l 0,0 z"
         id="path2993"
         inkscape:connector-curvature="0"
         style="fill:#8b122a" /><path
         d="m 38.3,2 c 20,0 36.2,16.2 36.2,36.2 0,20 -16.2,36.2 -36.2,36.2 C 18.3,74.4 2.1,58.2 2.1,38.2 2.1,18.3 18.3,2 38.3,2 m 0,-2 C 17.2,0 0.1,17.2 0.1,38.3 0.1,59.4 17.3,76.5 38.3,76.5 59.4,76.5 76.5,59.3 76.5,38.3 76.5,17.2 59.4,0 38.3,0 l 0,0 z"
         id="path2995"
         inkscape:connector-curvature="0" /></g><path
       clip-rule="evenodd"
       d="M 38.3,15 C 51.1,15 61.5,25.4 61.5,38.2 61.5,51 51.1,61.4 38.3,61.4 25.5,61.4 15.1,51.1 15.1,38.3 15.1,25.4 25.5,15 38.3,15 z"
       id="path2997"
       inkscape:connector-curvature="0"
       style="fill:#d70f37;fill-rule:evenodd" /></g><path
     style="fill:#f72640;opacity:1;fill-opacity:1"
     d="m 49.529185,73.334084 c -9.786505,-0.91182 -18.229064,-7.390336 -21.160688,-16.23796 -0.870334,-2.626679 -1.062299,-3.912795 -1.062299,-7.117287 0,-2.467621 0.04717,-3.121614 0.314067,-4.355309 1.360502,-6.288495 4.913152,-11.418473 10.396664,-15.012659 8.250888,-5.408068 19.589398,-5.408068 27.840283,0 5.483512,3.594186 9.036162,8.724164 10.396663,15.012659 0.266905,1.233695 0.314068,1.887688 0.314068,4.355309 0,3.204492 -0.191965,4.490608 -1.062305,7.117287 -3.468469,10.467822 -14.42143,17.314553 -25.976453,16.23796 z m 7.3653,-1.395526 c 4.858241,-1.046229 8.766481,-3.156202 12.190735,-6.581509 3.674989,-3.67611 5.712252,-7.721688 6.367461,-12.644416 C 76.846568,42.240038 70.192263,32.222 59.527168,28.736808 56.928382,27.88756 55.383143,27.670471 51.937069,27.670471 c -3.446068,0 -4.991313,0.217089 -7.590096,1.066337 -10.658422,3.483012 -17.318534,13.509785 -15.925513,23.975825 0.655645,4.926012 2.696036,8.976344 6.367461,12.639874 3.739623,3.731585 8.071846,5.936145 13.346296,6.791593 1.924713,0.312167 6.897059,0.195485 8.759268,-0.205542 z m -9.14187,-5.398061 c -0.19809,-0.07448 -0.468983,-0.319625 -0.601971,-0.544764 -0.386341,-0.654018 -0.308547,-1.303556 0.249738,-2.085267 1.273094,-1.782577 1.817608,-2.657161 2.124386,-3.41214 0.700832,-1.72476 1.065345,-4.853876 0.565432,-4.853876 -0.119903,0 -0.98476,-0.286819 -1.921903,-0.637382 -2.454086,-0.918007 -2.468804,-0.915533 -3.941445,0.662848 -1.925754,2.064032 -2.837399,2.468536 -4.105452,1.821627 -0.478509,-0.244118 -0.555699,-0.355746 -0.641456,-0.927634 -0.115785,-0.772071 0.0072,-1.456584 0.327227,-1.821484 0.728765,-0.830904 4.813673,-3.72493 6.068821,-4.299553 0.799463,-0.366009 0.911901,-0.369929 2.803366,-0.09766 0.536489,0.07722 0.575688,0.05745 0.738124,-0.372919 0.163495,-0.433161 0.128608,-0.5268 -0.743932,-1.996744 -3.290392,-5.543205 -5.9547,-11.45255 -5.163538,-11.45255 0.09938,0 0.251453,0.08674 0.337945,0.192756 0.08649,0.106014 1.028776,1.26923 2.093966,2.584937 2.246295,2.774572 3.850678,4.580653 4.888028,5.502523 0.860651,0.764837 2.255504,1.634617 2.62142,1.634617 0.354631,0 0.333969,-0.34111 -0.168717,-2.785053 -0.622103,-3.024534 -0.688657,-2.758115 1.046665,-4.190043 l 1.471588,-1.214311 0.489103,0.348002 c 0.269004,0.191403 0.639911,0.615847 0.824237,0.943206 0.303655,0.539305 0.33286,0.748162 0.310951,2.224062 -0.01327,0.895875 -0.08913,2.47749 -0.168523,3.514696 -0.126066,1.647029 -0.115828,1.929349 0.08086,2.229534 0.594008,0.906561 2.32294,0.708178 5.859943,-0.672407 1.207487,-0.471306 2.76206,-1.075421 3.454611,-1.342475 2.23979,-0.863679 3.344129,-1.04606 3.344129,-0.552278 0,0.543337 -2.391533,2.245877 -8.710885,6.201311 -3.267746,2.045364 -3.824467,2.339841 -5.416264,2.864922 -0.641887,0.211735 -1.197013,0.43344 -1.233626,0.492679 -0.03664,0.05926 -0.192301,1.063239 -0.345989,2.231122 -0.153688,1.167877 -0.416966,2.532572 -0.585073,3.032654 -1.390267,4.135746 -4.266448,7.410749 -5.951765,6.777049 z"
     id="path2998"
     inkscape:connector-curvature="0" /></svg>