<?xml version="1.0" encoding="utf-8"?>
<!-- Generator: Adobe Illustrator 18.1.1, SVG Export Plug-In . SVG Version: 6.00 Build 0)  -->
<svg version="1.1" id="Layer_1" xmlns="http://www.w3.org/2000/svg" xmlns:xlink="http://www.w3.org/1999/xlink" x="0px" y="0px"
	 viewBox="0 0 672 552" enable-background="new 0 0 672 552" xml:space="preserve">
<g>
	<path fill-rule="evenodd" clip-rule="evenodd" fill="#226ADD" d="M669,545.8c0,1.7-1.3,3-3,3H6c-1.7,0-3-1.3-3-3V5.7
		c0-1.7,1.3-3,3-3h660c1.7,0,3,1.3,3,3V545.8z"/>
	<path d="M666,5.7v540H6V5.7H666 M666-0.3H6C2.7-0.3,0,2.7,0,6v540c0,3.3,2.7,5.8,6,5.8h660c3.3,0,6-2.4,6-5.8V6
		C672,2.7,669.3-0.3,666-0.3L666-0.3z"/>
	<path fill="#407AED" d="M666,5.7v540H6V5.7H666 M666,1.7H6c-2.2,0-4,2-4,4.2v540c0,2.2,1.8,3.8,4,3.8h660c2.2,0,4-1.5,4-3.8V6
		C670,3.8,668.2,1.7,666,1.7L666,1.7z"/>
</g>
</svg>
