<?xml version="1.0" encoding="UTF-8" standalone="no"?>
<!-- Created with Inkscape (http://www.inkscape.org/) -->

<svg
   xmlns:dc="http://purl.org/dc/elements/1.1/"
   xmlns:cc="http://creativecommons.org/ns#"
   xmlns:rdf="http://www.w3.org/1999/02/22-rdf-syntax-ns#"
   xmlns:svg="http://www.w3.org/2000/svg"
   xmlns="http://www.w3.org/2000/svg"
   xmlns:sodipodi="http://sodipodi.sourceforge.net/DTD/sodipodi-0.dtd"
   xmlns:inkscape="http://www.inkscape.org/namespaces/inkscape"
   width="744.09448819"
   height="1052.3622047"
   id="svg3011"
   version="1.1"
   inkscape:version="0.48.4 r9939"
   sodipodi:docname="New document 3">
  <defs
     id="defs3013" />
  <sodipodi:namedview
     id="base"
     pagecolor="#ffffff"
     bordercolor="#666666"
     borderopacity="1.0"
     inkscape:pageopacity="0.0"
     inkscape:pageshadow="2"
     inkscape:zoom="0.35"
     inkscape:cx="333.97979"
     inkscape:cy="535.88899"
     inkscape:document-units="px"
     inkscape:current-layer="layer1"
     showgrid="false"
     inkscape:window-width="454"
     inkscape:window-height="421"
     inkscape:window-x="727"
     inkscape:window-y="295"
     inkscape:window-maximized="0" />
  <metadata
     id="metadata3016">
    <rdf:RDF>
      <cc:Work
         rdf:about="">
        <dc:format>image/svg+xml</dc:format>
        <dc:type
           rdf:resource="http://purl.org/dc/dcmitype/StillImage" />
        <dc:title></dc:title>
      </cc:Work>
    </rdf:RDF>
  </metadata>
  <g
     inkscape:label="Layer 1"
     inkscape:groupmode="layer"
     id="layer1">
    <path
       style="fill:#000000"
       d="m 417.17504,666.72324 c -35.98087,-3.35238 -67.02061,-27.17116 -77.79896,-59.70016 -3.19986,-9.65719 -3.90563,-14.3857 -3.90563,-26.16727 0,-9.07241 0.17342,-11.47686 1.15469,-16.01264 5.002,-23.12016 18.0636,-41.98093 38.22417,-55.19526 30.33504,-19.8832 72.02199,-19.8832 102.35703,0 20.16057,13.21433 33.22217,32.0751 38.22417,55.19526 0.98129,4.53578 1.15469,6.94023 1.15469,16.01264 0,11.78157 -0.70577,16.51008 -3.90565,26.16727 -12.7521,38.48579 -53.02154,63.65834 -95.50451,59.70016 z m 27.07911,-5.13076 c 17.86172,-3.84655 32.23068,-11.60403 44.82022,-24.19745 13.51139,-13.51551 21.00155,-28.3894 23.41048,-46.4882 5.12474,-38.50333 -19.34035,-75.33547 -58.55142,-88.14906 -9.55466,-3.12233 -15.23587,-3.92047 -27.90562,-3.92047 -12.66974,0 -18.35096,0.79814 -27.90559,3.92047 -39.18654,12.80557 -63.67297,49.66983 -58.55142,88.14906 2.41053,18.11087 9.91219,33.00224 23.41048,46.4715 13.74902,13.71947 29.67678,21.82471 49.06872,24.96984 7.07636,1.1477 25.35759,0.71871 32.20415,-0.75569 z m -33.61082,-19.8464 c -0.72829,-0.27383 -1.72425,-1.17513 -2.21319,-2.00287 -1.42041,-2.40455 -1.1344,-4.79263 0.91818,-7.66665 4.68063,-6.55379 6.68258,-9.76927 7.81048,-12.54501 2.57666,-6.34122 3.91682,-17.84566 2.07885,-17.84566 -0.44085,0 -3.62055,-1.05452 -7.06603,-2.34339 -9.02264,-3.37512 -9.07675,-3.36603 -14.49103,2.43702 -7.08021,7.58857 -10.43193,9.07577 -15.09403,6.69735 -1.7593,-0.89752 -2.04307,-1.30793 -2.35836,-3.41052 -0.42569,-2.83858 0.0263,-5.35525 1.20308,-6.69683 2.67936,-3.05488 17.69785,-13.695 22.3125,-15.80765 2.93927,-1.34566 3.35266,-1.36007 10.3068,-0.35907 1.97242,0.28391 2.11656,0.21122 2.71375,-1.37107 0.60113,-1.59255 0.47286,-1.93682 -2.7351,-7.34119 -12.09739,-20.38003 -21.89294,-42.10621 -18.98416,-42.10621 0.36537,0 0.92448,0.31891 1.24248,0.70868 0.31797,0.38977 3.78237,4.66643 7.69863,9.50373 8.25868,10.20093 14.15733,16.84113 17.9712,20.23046 3.16428,2.81199 8.29257,6.0098 9.63789,6.0098 1.30383,0 1.22786,-1.25412 -0.62031,-10.23947 -2.28721,-11.11994 -2.5319,-10.14043 3.84813,-15.40503 l 5.41043,-4.46453 1.79823,1.27948 c 0.98902,0.70369 2.35268,2.26421 3.03037,3.46777 1.11641,1.9828 1.22376,2.75068 1.14324,8.17695 -0.0488,3.29375 -0.32771,9.10866 -0.61959,12.92203 -0.46349,6.05546 -0.42585,7.09343 0.29729,8.19706 2.18391,3.33305 8.54046,2.60368 21.54456,-2.47215 4.4394,-1.7328 10.15493,-3.95387 12.70115,-4.9357 8.23476,-3.17538 12.29496,-3.84592 12.29496,-2.03049 0,1.99762 -8.79267,8.25714 -32.02627,22.79961 -12.01416,7.51995 -14.06097,8.60261 -19.91334,10.53311 -2.35995,0.77847 -4.40093,1.59356 -4.53555,1.81138 -0.1347,0.21786 -0.70698,3.90908 -1.27203,8.2029 -0.56507,4.29379 -1.53301,9.3112 -2.15106,11.14979 -5.11143,15.2054 -15.68594,27.24621 -21.88215,24.91637 z"
       id="path2998"
       inkscape:connector-curvature="0" />
  </g>
</svg>
